# xmcd
#
# Track frame offsets:
#	150
#	14445
#	27392
#	42117
#	53335
#	68155
#	80400
#	94465
#	106597
#	121242
#
# Disc length: 1777 seconds
#
# Revision: 4
# Processed by: cddbd v1.5.2PL0 Copyright (c) Steve Scherf et al.
# Submitted via: audiograbber 1.83.01
#
DISCID=7306ef0a
DTITLE=Lacy J. Dalton - 16th Avenue
DYEAR=1982
DGENRE=Country
TTITLE0=16th Avenue
TTITLE1=Rained On
TTITLE2=Blue-Eyed Blues
TTITLE3=You Can't Take The Texas Out Of Me
TTITLE4=One Of The Unsatisfied
TTITLE5=Jamaica
TTITLE6=Heartbeat
TTITLE7=Slow Down
TTITLE8=Love It Away
TTITLE9=Imagine That
EXTD=
EXTT0=
EXTT1=
EXTT2=
EXTT3=
EXTT4=
EXTT5=
EXTT6=
EXTT7=
EXTT8=
EXTT9=
PLAYORDER=
